<svg xmlns="http://www.w3.org/2000/svg" width="150" height="150" data-name="Layer 1">
  <path fill="#33335f" d="M81 61.46A1.62 1.62 0 0 1 79.24 63H67.9a1.59 1.59 0 1 1 0-3.16h11.34A1.62 1.62 0 0 1 81 61.46z"/>
  <path fill="#33335f" d="M112 85.95a4.93 4.93 0 0 0-4.88-4.29 1.4 1.4 0 0 1-1.37-1.52v-5.39a5.09 5.09 0 0 0-3.09-4.75 5.24 5.24 0 0 1 6.31-3.7 1.79 1.79 0 0 0 2.15-1.3 1.83 1.83 0 0 0 0-.5 1.76 1.76 0 0 0-.27-1.08 12.69 12.69 0 0 0-10.79-6 12.84 12.84 0 0 0-7 2.16 20.4 20.4 0 0 0-13.89-5.29H67.9a30 30 0 0 0-21.54 8.94c-.35.36-.69.68-1 1.05a1.2 1.2 0 0 0-.51-.14A3.82 3.82 0 0 1 41 60.39v-.33a5.61 5.61 0 0 0 3.44 1.82 1.18 1.18 0 0 0 .34.05h.41a1.15 1.15 0 0 0 .52-.12 3.85 3.85 0 0 0-.68-7.59h-.24a6.12 6.12 0 0 0-2.37.47 3.23 3.23 0 0 1 2.78-1.6 1.19 1.19 0 0 0 0-2.38 5.62 5.62 0 0 0-5.62 5.62 6.12 6.12 0 0 0 0 .68 6.14 6.14 0 0 0-1 3.39 6.2 6.2 0 0 0 5 6.07 28.87 28.87 0 0 0-5.7 17.67c0 .61 0 1.22.08 1.82a29.54 29.54 0 0 0 12.84 22.12 8 8 0 0 1 3.59 6.67v.19a1.79 1.79 0 0 0 1.79 1.81h10.61a1.86 1.86 0 0 0 1.87-1.75v-.71a6.62 6.62 0 0 1 6-6.75h.51a6.63 6.63 0 0 1 5.93 3.87 3.74 3.74 0 0 1 .2 1.59v2a2.08 2.08 0 0 0 2.1 1.79H94c1 0 1.5-.81 1.5-1.79v-6.81a5.94 5.94 0 0 1 5.93-6 10.68 10.68 0 0 0 10.66-10.7v-4.74a5.38 5.38 0 0 0-.09-.8zM44.83 56.57a1.48 1.48 0 0 1 .2 3 3.23 3.23 0 0 1-2.77-1.94 3.78 3.78 0 0 1 2.57-1.06zm64.11 34.91a7.1 7.1 0 0 1-7.09 7.12 9.52 9.52 0 0 0-9.5 9.54v4.66h-7.1v.2a7.35 7.35 0 0 0-.73-3.16 10.49 10.49 0 0 0-9.33-5.9h-.07c-.24 0-.48-.18-.72-.16a10.21 10.21 0 0 0-9.33 9h-7.2a11.42 11.42 0 0 0-5-7.85 25.8 25.8 0 0 1-11.22-19c-.06-.65-.1-1.3-.11-2a25.66 25.66 0 0 1 7.43-18.44 26.57 26.57 0 0 1 19-8h11.27A17.08 17.08 0 0 1 91.67 63a1.79 1.79 0 0 0 2.53.14h.07a9.19 9.19 0 0 1 11.33-.26 8.89 8.89 0 0 0-6.68 8.6 1.83 1.83 0 0 0 1.79 1.84l.19-.05a1.67 1.67 0 0 1 1.72 1.49v5.39a5 5 0 0 0 4.94 5.09 1.3 1.3 0 0 1 1.18.72 1.69 1.69 0 0 1 .2.8z"/>
  <path fill="#fff" d="M108.75 85.95a1.3 1.3 0 0 0-1.18-.72 5 5 0 0 1-4.94-5.09v-5.39a1.67 1.67 0 0 0-1.72-1.49l-.19.05a1.83 1.83 0 0 1-1.79-1.84 8.89 8.89 0 0 1 6.68-8.6 9.19 9.19 0 0 0-11.33.26h-.07a1.79 1.79 0 0 1-2.54-.13 17.08 17.08 0 0 0-12.43-5.48H67.9a26.57 26.57 0 0 0-19 8A25.66 25.66 0 0 0 41.48 84c0 .66 0 1.31.11 2a25.8 25.8 0 0 0 11.22 19 11.42 11.42 0 0 1 5 7.85h7.2a10.21 10.21 0 0 1 9.33-9c.24 0 .48.16.72.16h.07a10.49 10.49 0 0 1 9.33 5.9 7.35 7.35 0 0 1 .73 3.16v-.18h7.11v-4.66a9.52 9.52 0 0 1 9.5-9.54 7.1 7.1 0 0 0 7.09-7.12v-4.82a1.69 1.69 0 0 0-.14-.8zM45 85.16A1.17 1.17 0 0 1 43.79 84a22.92 22.92 0 0 1 .33-4.25 1.19 1.19 0 0 1 2.35.4 20.79 20.79 0 0 0-.3 3.82A1.16 1.16 0 0 1 45 85.16zM54.45 102a1.19 1.19 0 0 1-1.68.2 23.63 23.63 0 0 1-7.65-10.7 1.19 1.19 0 1 1 2.25-.79 21.24 21.24 0 0 0 6.88 9.63 1.19 1.19 0 0 1 .2 1.66zm24.79-39H67.9a1.59 1.59 0 1 1 0-3.16h11.34a1.59 1.59 0 1 1 0 3.16zm19.48 17.31a2 2 0 1 1 2-2 2 2 0 0 1-2 2z"/>
  <circle cx="98.72" cy="78.32" r="1.99" fill="#33335f"/>
  <path fill="#33335f" d="M46.47 80.15a20.79 20.79 0 0 0-.3 3.82A1.16 1.16 0 0 1 45 85.16 1.17 1.17 0 0 1 43.79 84a22.92 22.92 0 0 1 .33-4.25 1.19 1.19 0 0 1 2.35.4zM54.45 102a1.19 1.19 0 0 1-1.68.2 23.63 23.63 0 0 1-7.65-10.7 1.19 1.19 0 1 1 2.25-.79 21.24 21.24 0 0 0 6.88 9.63 1.19 1.19 0 0 1 .2 1.66zM74 51.66A8.66 8.66 0 1 1 82.66 43 8.67 8.67 0 0 1 74 51.66z"/>
  <path fill="#fff" stroke="#fff" stroke-width=".75" stroke-miterlimit="10" d="M74.44 39.22a2 2 0 0 1 1.43.35 1.94 1.94 0 0 1 .76 1.43.78.78 0 0 0 .2.41.72.72 0 0 0 .44.15.59.59 0 0 0 .53-.64 3.07 3.07 0 0 0-1.23-2.28 3.43 3.43 0 0 0-2-.58 1 1 0 0 0-.29 0 3.26 3.26 0 0 0-2.95 3.5c0 .29 0 .58.06.85h-.64a.58.58 0 1 0 0 1.17h.76a8.83 8.83 0 0 1 .09 1.17 3.65 3.65 0 0 1-.7 2.25.6.6 0 0 0 .15.82.59.59 0 0 0 .32.09h5.84a.58.58 0 1 0 0-1.17H72.3a4.71 4.71 0 0 0 .47-2c0-.38 0-.76-.06-1.2h2.45a.58.58 0 1 0 0-1.17H72.6c0-.29-.06-.58-.09-.93a2.07 2.07 0 0 1 1.93-2.22z"/>
</svg>
