<svg xmlns="http://www.w3.org/2000/svg" width="150" height="150" data-name="Layer 1">
  <defs>
    <clipPath id="a">
      <path fill="none" d="M45.61 70.64h2.93v33.69h-2.93z"/>
    </clipPath>
    <clipPath id="b">
      <path fill="none" d="M45.61 70.64h70.16v33.69H45.61z"/>
    </clipPath>
    <clipPath id="c">
      <path fill="none" d="M116.32 105.32H45.61a1 1 0 0 1-1-1V70.64a1 1 0 0 1 1-1h70.71a1 1 0 0 1 1 1v33.69a1 1 0 0 1-1 .99zm-69.72-2h68.73V71.63H46.6z" clip-rule="evenodd"/>
    </clipPath>
    <clipPath id="d">
      <path fill="none" d="M116.33 105.36H45.62a1 1 0 0 1-1-1V70.67a1 1 0 0 1 1-1h70.71a1 1 0 0 1 1 1v33.69a1 1 0 0 1-1 1zm-69.72-2h68.73v-31.7H46.61z" clip-rule="evenodd"/>
    </clipPath>
    <clipPath id="e">
      <path fill="none" d="M107.64 64.65h2.93v33.69h-2.93z"/>
    </clipPath>
    <clipPath id="f">
      <path fill="none" d="M43.46 64.65h67.23v33.69H43.46z"/>
    </clipPath>
    <clipPath id="g">
      <path fill="none" d="M110.57 99.34H39.86a1 1 0 0 1-1-1V64.65a1 1 0 0 1 1-1h70.71a1 1 0 0 1 1 1v33.7a1 1 0 0 1-1 .99zm-69.72-2h68.73v-31.7H40.84z" clip-rule="evenodd"/>
    </clipPath>
    <clipPath id="h">
      <path fill="none" d="M110.55 99.19H39.84a1 1 0 0 1-1-1V64.51a1 1 0 0 1 1-1h70.71a1 1 0 0 1 1 1V98.2a1 1 0 0 1-1 .99zm-69.72-2h68.73V65.5H40.83z" clip-rule="evenodd"/>
    </clipPath>
    <clipPath id="i">
      <path fill="none" d="M59.65 80.2a20.8 20.8 0 0 0-2.78-.2 12.17 12.17 0 0 0-1.7.14C67.78 83 80.95 95 90.42 93l-.27-.08c-8.74-.92-19.77-9.86-30.5-12.72" clip-rule="evenodd"/>
    </clipPath>
    <clipPath id="j">
      <path fill="none" d="M90.15 92.94c-9.09-2.63-20.07-11.33-30.5-12.74 10.73 2.86 21.76 11.8 30.5 12.74" clip-rule="evenodd"/>
    </clipPath>
    <clipPath id="k">
      <path fill="none" d="M95.6 90a9.62 9.62 0 0 1-5 3 9.73 9.73 0 0 0 8.33-3.22V59.25a8.74 8.74 0 0 1-3.32.81z" clip-rule="evenodd"/>
    </clipPath>
    <clipPath id="l">
      <path fill="none" d="M59.65 80.2a23.76 23.76 0 0 0-6.11-.87 14 14 0 0 0-2.39.25 23.53 23.53 0 0 1 4 .56 12.17 12.17 0 0 1 1.7-.14 20.8 20.8 0 0 1 2.78.2" clip-rule="evenodd"/>
    </clipPath>
    <clipPath id="m">
      <path fill="none" d="M90.15 92.94l.27.08h.18-.46" clip-rule="evenodd"/>
    </clipPath>
    <clipPath id="n">
      <path fill="none" d="M98.93 60.87a15.22 15.22 0 0 1-5.08-.74h-.21c-9.81 2.41-22.28-10.87-38.3-13.75C47.64 47 35 53 35 53v32.32c4.86-1.82 11-3.81 14.43-3.81h1a15.62 15.62 0 0 1 2.57-.24 26.65 26.65 0 0 1 6.66.92c11.43 1.5 23.4 10.71 33.34 13.5h.5a10.56 10.56 0 0 0 5.46-3.17z" clip-rule="evenodd"/>
    </clipPath>
    <clipPath id="o">
      <path fill="none" d="M91.53 94a16.56 16.56 0 0 1-3.72-.46c-4.27-1-8.87-3.4-13.73-6-6.82-3.54-13.88-7.23-20.53-7.23-5.53 0-19.33 6.21-19.47 6.27a1 1 0 0 1-1.4-.9V52a1 1 0 0 1 .56-.89c.54-.26 13.32-6.46 20.31-6.46 9.28 0 17.25 4.4 24.29 8.28 8.39 4.63 15 8.28 20.37 2.48a1 1 0 0 1 1.72.67v33.69a1 1 0 0 1-.26.67A10.57 10.57 0 0 1 91.53 94zm-38-15.67c7.14 0 14.42 3.82 21.45 7.51 9.33 4.89 17.4 9.13 22.94 3.52V58.31a10.46 10.46 0 0 1-9 1.76c-3.72-.8-7.78-3-12.07-5.41-6.83-3.77-14.57-8-23.34-8-5.75 0-16.35 4.81-18.88 6v31.51c3.78-1.62 14-5.83 18.92-5.83zm45.4 11.44z" clip-rule="evenodd"/>
    </clipPath>
  </defs>
  <g clip-path="url(#a)">
    <path fill="#fff" d="M43.69 68.71h6.78v37.55h-6.78z"/>
  </g>
  <g clip-path="url(#b)">
    <path fill="#fff" d="M43.69 68.71h74.01v37.55H43.69z"/>
  </g>
  <g clip-path="url(#c)">
    <path fill="#8a6df2" d="M42.7 67.72h76.54v39.53H42.7z"/>
  </g>
  <g clip-path="url(#d)">
    <path fill="#33335f" d="M42.7 67.76h76.54v39.53H42.7z"/>
  </g>
  <path fill="none" stroke="#33335f" stroke-width="2" stroke-miterlimit="10" d="M116.33 105.36H45.62a1 1 0 0 1-1-1V70.67a1 1 0 0 1 1-1h70.71a1 1 0 0 1 1 1v33.69a1 1 0 0 1-1 1zm-69.72-2h68.73v-31.7H46.61z"/>
  <g clip-path="url(#e)">
    <path fill="#fff" d="M105.71 62.73h6.78v37.55h-6.78z"/>
  </g>
  <g clip-path="url(#f)">
    <path fill="#fff" d="M41.53 62.73h71.09v37.55H41.53z"/>
  </g>
  <g clip-path="url(#g)">
    <path fill="#8a6df2" d="M36.94 61.74h76.54v39.53H36.94z"/>
  </g>
  <g clip-path="url(#h)">
    <path fill="#33335f" d="M36.92 61.59h76.54v39.53H36.92z"/>
  </g>
  <path fill="none" stroke="#33335f" stroke-width="2" stroke-miterlimit="10" d="M110.55 99.19H39.84a1 1 0 0 1-1-1V64.51a1 1 0 0 1 1-1h70.71a1 1 0 0 1 1 1V98.2a1 1 0 0 1-1 .99zm-69.72-2h68.73V65.5H40.83z"/>
  <g clip-path="url(#i)">
    <path fill="#fff" d="M53.24 78.07h39.1v17.09h-39.1z"/>
  </g>
  <g clip-path="url(#j)">
    <path fill="#fff" d="M57.73 78.27h34.35v16.6H57.73z"/>
  </g>
  <path fill="none" stroke="#8a6df2" stroke-width="3" stroke-miterlimit="10" d="M90.15 92.94c-9.09-2.63-20.07-11.33-30.5-12.74 10.73 2.86 21.76 11.8 30.5 12.74z"/>
  <g clip-path="url(#k)">
    <path fill="#fff" d="M88.68 57.33h12.18v37.62H88.68z"/>
  </g>
  <g clip-path="url(#l)">
    <path fill="#fff" d="M49.23 77.4h12.35v4.73H49.23z"/>
  </g>
  <path fill="none" stroke="#8a6df2" stroke-miterlimit="10" d="M59.65 80.2a23.76 23.76 0 0 0-6.11-.87 14 14 0 0 0-2.39.25 23.53 23.53 0 0 1 4 .56 12.17 12.17 0 0 1 1.7-.14 20.8 20.8 0 0 1 2.8.2z"/>
  <g clip-path="url(#m)">
    <path fill="#fff" d="M88.22 91.02h4.31v3.93h-4.31z"/>
  </g>
  <path fill="none" stroke="#8a6df2" stroke-width="3" stroke-miterlimit="10" d="M90.15 92.94l.27.08h.18z"/>
  <g clip-path="url(#n)">
    <path fill="#fff" d="M33.07 44.44h67.79v53.22H33.07z"/>
  </g>
  <g clip-path="url(#o)">
    <path fill="#8a6df2" d="M30.76 42.72h71.09v53.22H30.76z"/>
  </g>
  <g clip-path="url(#o)">
    <path fill="#33335f" d="M30.76 42.72h71.09v53.22H30.76z"/>
  </g>
  <path fill="none" stroke="#33335f" stroke-width="2" stroke-miterlimit="10" d="M91.53 94a16.56 16.56 0 0 1-3.72-.46c-4.27-1-8.87-3.4-13.73-6-6.82-3.54-13.88-7.23-20.53-7.23-5.53 0-19.33 6.21-19.47 6.27a1 1 0 0 1-1.4-.9V52a1 1 0 0 1 .56-.89c.54-.26 13.32-6.46 20.31-6.46 9.28 0 17.25 4.4 24.29 8.28 8.39 4.63 15 8.28 20.37 2.48a1 1 0 0 1 1.72.67v33.69a1 1 0 0 1-.26.67A10.57 10.57 0 0 1 91.53 94zm-38-15.67c7.14 0 14.42 3.82 21.45 7.51 9.33 4.89 17.4 9.13 22.94 3.52V58.31a10.46 10.46 0 0 1-9 1.76c-3.72-.8-7.78-3-12.07-5.41-6.83-3.77-14.57-8-23.34-8-5.75 0-16.35 4.81-18.88 6v31.51c3.78-1.62 14-5.83 18.92-5.83zm45.4 11.44z"/>
  <path fill="#33335f" stroke="#33335f" stroke-width=".75" stroke-miterlimit="10" d="M69.79 59.11a3.61 3.61 0 0 1 2.59.63 3.51 3.51 0 0 1 1.37 2.59 1.41 1.41 0 0 0 .37.74 1.3 1.3 0 0 0 .79.26 1.07 1.07 0 0 0 1-1.16 5.55 5.55 0 0 0-2.22-4.12A6.21 6.21 0 0 0 70.11 57a1.8 1.8 0 0 0-.53.05 5.9 5.9 0 0 0-5.33 6.34c.05.53.05 1.06.11 1.53h-1.17a1.06 1.06 0 0 0 0 2.11h1.37a16 16 0 0 1 .16 2.11 6.6 6.6 0 0 1-1.32 4.12 1.08 1.08 0 0 0 .26 1.48 1.06 1.06 0 0 0 .58.16h10.57a1.06 1.06 0 0 0 0-2.11h-8.87a8.51 8.51 0 0 0 .84-3.64c0-.69-.05-1.37-.11-2.16h4.44a1.06 1.06 0 0 0 0-2.11h-4.64c-.05-.53-.11-1.06-.16-1.69a3.75 3.75 0 0 1 3.48-4.08z"/>
</svg>
